:SAMPLES-PER-SECOND 30
:FULLY-SPECIFIED
:DEGREES
610
root  80.0429 38.6113 5.39325 -20.1187 87.8444 -20.6524
RightUpLeg  -11.3544 -6.7915 0.255719
RightLeg  15.6575 5.66962 2.05583
RightFoot  -4.06406 0.0979294 -1.93971
RightToes  -6.40286e-010 0 -3.6325e-017
Spine  3.5237 2.72203 20.117
Spine1  5.19725 5.53802 -9.92727
HEad  -18.4839 -4.19984 -3.03397
LeftShoulder1  -0.555321 4.88682 -33.9904
LeftArm  -4.3006 13.6221 -43.3538
LeftForeArm  31.91 -12.377 -6.86381
LeftHand  -0.0565255 7.60424 -0.735265
RightShoulder  -0.880873 -6.08498 27.5415
RightArm  21.5023 3.83481 47.2528
RightForeArm  9.62792 18.4806 5.08621
RightHand  0.0640128 3.9018 0.535255
LeftUpLeg  -18.2405 9.15031 6.72838
LeftLeg  41.4106 2.45147 2.6736
LeftFoot  -10.2491 0.103249 -4.65893
LeftToes  1.32783e-010 1.73515e-011 1.59258e-011
611
root  80.314 38.7218 5.46361 -7.98328 88.4542 -8.52379
RightUpLeg  -10.5034 -7.34936 -0.429281
RightLeg  14.9703 5.73346 2.20321
RightFoot  -4.17894 0.101551 -2.02955
RightToes  -6.40286e-010 0 -3.6325e-017
Spine  2.02713 2.83849 19.8441
Spine1  6.7486 5.62957 -10.3301
HEad  -18.5471 -3.49808 -3.95595
LeftShoulder1  -0.543394 4.86597 -33.7603
LeftArm  -4.11125 12.5467 -43.9333
LeftForeArm  32.0712 -13.7465 -6.29397
LeftHand  -0.0602694 7.46614 -1.00864
RightShoulder  -0.868386 -6.04559 27.5741
RightArm  24.2968 4.07216 47.3427
RightForeArm  8.37551 17.6723 5.66831
RightHand  0.0432489 4.30535 0.236966
LeftUpLeg  -17.4373 8.95269 6.05406
LeftLeg  37.5935 4.13528 3.78481
LeftFoot  -11.4397 0.0645574 -5.39098
LeftToes  1.32783e-010 1.73515e-011 1.59258e-011
612
root  80.4571 38.7342 5.58177 -24.0986 88.6671 -24.4381
RightUpLeg  -9.79244 -6.95261 0.0588857
RightLeg  14.5608 5.02829 1.95463
RightFoot  -4.27388 0.113816 -2.25869
RightToes  -6.40286e-010 0 -3.6325e-017
Spine  2.26615 2.82065 20.3063
Spine1  6.82582 5.66237 -10.4683
HEad  -17.9547 -3.84187 -4.27744
LeftShoulder1  -0.554307 4.88815 -33.8525
LeftArm  -1.34145 10.3864 -43.4008
LeftForeArm  29.6748 -14.4067 -6.5502
LeftHand  -0.0584222 7.44638 -0.909538
RightShoulder  -0.858341 -6.0231 27.4769
RightArm  24.1234 3.52999 47.761
RightForeArm  9.7223 16.897 5.94839
RightHand  0.0403185 3.46669 0.286562
LeftUpLeg  -15.982 8.33822 6.56189
LeftLeg  32.3803 4.17323 3.20501
LeftFoot  -12.3191 0.0289524 -5.23648
LeftToes  1.32783e-010 1.73515e-011 1.59258e-011
613
root  80.5599 38.7358 5.72124 -38.6617 88.6635 -39.1468
RightUpLeg  -9.71344 -6.59011 0.577265
RightLeg  14.4606 4.41915 1.8425
RightFoot  -4.42492 0.116806 -2.34169
RightToes  -6.40286e-010 0 -3.6325e-017
Spine  2.79988 2.81945 19.5708
Spine1  5.80799 5.38393 -9.64421
HEad  -17.4203 -3.319 -4.46587
LeftShoulder1  -0.556462 4.90345 -33.5979
LeftArm  0.411081 9.50062 -43.1645
LeftForeArm  29.3124 -16.3437 -5.84349
LeftHand  -0.0802806 7.69221 -1.8037
RightShoulder  -0.860524 -6.02995 27.4716
RightArm  22.5505 2.22912 47.959
RightForeArm  11.4509 16.4899 5.91237
RightHand  0.00980219 4.01305 -0.156547
LeftUpLeg  -14.0458 6.79658 6.88368
LeftLeg  24.8508 3.95363 2.3068
LeftFoot  -11.8966 0.0488445 -5.15086
LeftToes  1.32783e-010 1.73515e-011 1.59258e-011
614
root  80.7132 38.8312 5.83398 -23.7334 88.6354 -24.2024
RightUpLeg  -8.96852 -6.5331 0.430735
RightLeg  13.5058 4.58806 1.87003
RightFoot  -4.19851 0.11726 -2.37673
RightToes  -6.40286e-010 0 -3.6325e-017
Spine  2.32977 2.82018 16.959
Spine1  6.18562 4.79462 -7.49209
HEad  -17.773 -1.95339 -4.97753
LeftShoulder1  -0.545361 4.88629 -33.296
LeftArm  0.425631 8.71082 -43.0646
LeftForeArm  29.5903 -17.2688 -5.33414
LeftHand  -0.0889779 7.84961 -2.04292
RightShoulder  -0.863688 -6.03411 27.5419
RightArm  21.2685 1.70453 47.6927
RightForeArm  12.1179 16.1509 5.88945
RightHand  0.0109936 4.56501 -0.162101
LeftUpLeg  -11.2068 4.99261 6.54062
LeftLeg  16.5403 3.83265 1.64983
LeftFoot  -8.50434 0.176397 -5.30054
LeftToes  1.32783e-010 1.73515e-011 1.59258e-011
615
root  81.0266 38.9691 5.94085 -53.3766 89.1863 -53.9428
RightUpLeg  -7.58348 -6.37398 0.453352
RightLeg  11.8007 3.75395 1.59352
RightFoot  -3.89935 0.118219 -2.40449
RightToes  -6.40286e-010 0 -3.6325e-017
Spine  0.0108883 2.57142 14.5351
Spine1  7.88902 3.83822 -5.39248
HEad  -17.9043 -0.759459 -5.236
LeftShoulder1  -0.542417 4.87903 -33.2907
LeftArm  1.8026 8.03265 -41.8191
LeftForeArm  26.9319 -18.411 -4.97618
LeftHand  -0.0754204 7.73414 -1.48349
RightShoulder  -0.870367 -6.04416 27.6724
RightArm  20.8901 1.0627 47.3072
RightForeArm  11.7002 14.973 6.36113
RightHand  -0.0684972 4.34028 -1.09958
LeftUpLeg  -9.72921 3.5653 6.39164
LeftLeg  13.1904 2.86099 1.28159
LeftFoot  -3.71992 0.288206 -3.95348
LeftToes  1.32783e-010 1.73515e-011 1.59258e-011
616
root  81.1309 38.972 6.00757 -107.155 89.479 -107.427
RightUpLeg  -6.95286 -6.14873 0.5788
RightLeg  11.6749 2.73636 1.06726
RightFoot  -4.2392 0.0951636 -2.03677
RightToes  -6.40286e-010 0 -3.6325e-017
Spine  -0.188995 2.0382 12.4472
Spine1  8.31494 2.83444 -3.33831
HEad  -17.7793 -0.409645 -4.8774
LeftShoulder1  -0.505296 4.78813 -33.1918
LeftArm  0.920314 6.70374 -40.9023
LeftForeArm  26.5169 -18.817 -4.72848
LeftHand  -0.0473717 7.42378 -0.40056
RightShoulder  -0.878782 -6.06368 27.7432
RightArm  16.5401 0.454523 47.6614
RightForeArm  14.6624 13.2078 6.35485
RightHand  -0.0211357 4.53563 -0.531308
LeftUpLeg  -9.35537 1.53799 6.34026
LeftLeg  13.0996 3.47073 1.60239
LeftFoot  -2.86721 0.180313 -2.18624
LeftToes  1.32783e-010 1.73515e-011 1.59258e-011
617
root  81.1411 39.0505 6.04982 125.916 89.1949 125.967
RightUpLeg  -6.70597 -6.84357 -0.623834
RightLeg  11.8882 3.59152 1.1119
RightFoot  -4.21215 0.12232 -2.41911
RightToes  -6.40286e-010 0 -3.6325e-017
Spine  1.54704 1.99955 10.4618
Spine1  6.71934 2.89757 -3.07738
HEad  -17.3789 0.0924805 -4.83989
LeftShoulder1  -0.490875 4.76245 -32.8565
LeftArm  -0.712082 5.08871 -39.6217
LeftForeArm  27.7927 -18.6434 -4.62165
LeftHand  -0.0631661 7.31189 -1.30365
RightShoulder  -0.877943 -6.07056 27.6171
RightArm  11.4525 -3.06644 48.0099
RightForeArm  16.8347 14.4147 4.80275
RightHand  0.0297698 4.33614 0.0691087
LeftUpLeg  -7.81288 2.5986 4.97999
LeftLeg  10.8004 2.78635 1.56221
LeftFoot  -1.74639 0.192935 -2.17039
LeftToes  1.32783e-010 1.73515e-011 1.59258e-011
618
root  81.2008 39.1251 6.02814 73.2852 88.6288 73.2131
RightUpLeg  -6.53603 -7.05534 -1.26217
RightLeg  11.2026 4.41547 1.15577
RightFoot  -3.88674 0.143476 -2.60302
RightToes  -6.40286e-010 0 -3.6325e-017
Spine  1.86049 2.27077 10.9444
Spine1  6.4574 3.66463 -5.12153
HEad  -17.4009 0.169859 -4.79963
LeftShoulder1  -0.497528 4.78068 -32.8115
LeftArm  0.140975 2.3479 -37.4289
LeftForeArm  26.6828 -17.908 -5.05029
LeftHand  -0.0647662 7.38698 -1.10155
RightShoulder  -0.864375 -6.05064 27.3472
RightArm  11.0929 -3.97836 48.2257
RightForeArm  14.1855 11.9769 5.4357
RightHand  -0.0177767 4.21205 -0.492956
LeftUpLeg  -6.70841 4.05199 4.31685
LeftLeg  8.81437 2.26103 1.43107
LeftFoot  -1.36741 0.245669 -2.71898
LeftToes  1.32783e-010 1.73515e-011 1.59258e-011
619
root  81.2761 39.2182 6.00576 51.423 87.7269 51.2122
RightUpLeg  -6.23166 -7.09911 -1.74773
RightLeg  10.3349 5.52448 1.15044
RightFoot  -3.44797 0.161894 -2.68547
RightToes  -6.40286e-010 0 -3.6325e-017
Spine  1.72634 2.5044 11.0884
Spine1  6.92101 4.28702 -6.7
HEad  -18.0201 0.829752 -5.28515
LeftShoulder1  -0.456761 4.68574 -32.5044
LeftArm  0.21335 1.29597 -35.9331
LeftForeArm  25.1323 -18.9054 -4.69689
LeftHand  -0.0305887 6.67756 0.394944
RightShoulder  -0.869395 -6.05739 27.4558
RightArm  11.0826 -4.86379 48.1312
RightForeArm  15.0904 11.7669 5.4694
RightHand  -0.0128822 4.12711 -0.395888
LeftUpLeg  -5.27165 5.46071 3.89554
LeftLeg  6.29864 2.1886 1.13384
LeftFoot  -0.519365 0.277628 -2.90227
LeftToes  1.32783e-010 1.73515e-011 1.59258e-011
